<?xml version="1.0" standalone="no"?>
<!DOCTYPE svg PUBLIC "-//W3C//DTD SVG 20010904//EN"
 "http://www.w3.org/TR/2001/REC-SVG-20010904/DTD/svg10.dtd">
<svg version="1.0" xmlns="http://www.w3.org/2000/svg"
 width="300.000000pt" height="86.000000pt" viewBox="0 0 300.000000 86.000000"
 preserveAspectRatio="xMidYMid meet">
<metadata>
Created by potrace 1.10, written by Peter Selinger 2001-2011
</metadata>
<g transform="translate(0.000000,86.000000) scale(0.100000,-0.100000)"
fill="#f3f3f3" stroke="none">
<path d="M625 498 c-3 -8 -4 -86 -3 -173 l3 -160 27 -13 c20 -9 32 -10 52 -1
33 15 34 47 1 59 -24 9 -24 11 -27 152 -3 140 -4 143 -26 146 -12 2 -24 -3
-27 -10z m47 -145 c3 -145 3 -148 26 -151 12 -2 22 -9 22 -17 0 -17 -37 -26
-66 -15 -24 9 -24 10 -24 170 0 153 1 160 20 160 18 0 20 -8 22 -147z"/>
<path d="M1807 504 c-13 -13 -7 -62 8 -68 29 -11 46 5 43 38 -2 22 -9 32 -23
34 -12 2 -24 0 -28 -4z m43 -29 c0 -18 -5 -25 -20 -25 -15 0 -20 7 -20 25 0
18 5 25 20 25 15 0 20 -7 20 -25z"/>
<path d="M127 494 c-13 -13 -7 -42 9 -48 9 -3 33 -6 54 -6 36 0 38 -2 44 -37
3 -21 6 -84 6 -139 0 -102 6 -118 38 -107 9 4 12 41 12 144 l0 139 48 0 c56 0
75 10 70 36 -3 17 -15 19 -139 22 -74 1 -138 -1 -142 -4z m273 -19 c0 -12 -13
-15 -60 -15 l-60 0 0 -145 c0 -122 -2 -145 -15 -145 -13 0 -15 23 -15 145 l0
145 -60 0 c-47 0 -60 3 -60 15 0 13 22 15 135 15 113 0 135 -2 135 -15z"/>
<path d="M1277 494 c-4 -4 -7 -20 -7 -34 0 -15 -7 -33 -15 -40 -8 -7 -15 -20
-15 -30 0 -10 7 -20 15 -24 12 -4 15 -25 15 -99 0 -59 4 -97 12 -105 17 -17
84 -15 102 4 15 14 17 14 32 0 8 -9 18 -16 22 -16 25 1 31 23 34 115 l3 100
38 -68 c39 -67 61 -88 84 -80 7 3 30 35 50 71 l38 67 3 -97 c3 -99 10 -116 47
-102 13 5 15 31 13 173 l-3 166 -26 3 c-24 3 -32 -6 -80 -93 -62 -110 -53
-111 -127 20 -39 68 -46 76 -70 73 l-27 -3 -6 -130 c-4 -71 -7 -141 -8 -154
-1 -23 -2 -23 -14 -7 -7 10 -22 16 -33 14 -17 -3 -19 4 -22 68 -3 70 -2 72 23
78 33 9 32 49 -2 54 -17 3 -23 11 -25 40 -2 28 -8 38 -23 40 -12 2 -24 0 -28
-4z m43 -44 c0 -36 3 -40 25 -40 16 0 25 -6 25 -15 0 -9 -9 -15 -25 -15 l-26
0 3 -87 3 -88 28 2 c15 1 27 -2 27 -8 0 -5 0 -12 0 -16 -1 -14 -51 -22 -76
-13 -23 9 -24 13 -24 110 0 82 -3 100 -15 100 -8 0 -15 7 -15 15 0 8 7 15 15
15 11 0 15 11 15 40 0 33 3 40 20 40 17 0 20 -7 20 -40z m204 -65 l60 -105 59
105 c43 76 64 105 78 105 18 0 19 -9 19 -160 0 -153 -1 -160 -20 -160 -19 0
-20 7 -20 118 l0 117 -51 -88 c-35 -61 -56 -87 -67 -85 -9 2 -39 43 -67 91
l-50 89 -3 -121 c-2 -113 -4 -121 -22 -121 -19 0 -20 8 -20 160 0 159 0 160
23 160 18 0 34 -21 81 -105z"/>
<path d="M398 404 c-29 -15 -34 -29 -19 -53 8 -13 15 -13 49 -2 43 15 82 8 82
-15 0 -10 -14 -14 -55 -14 -46 0 -60 -4 -80 -25 -43 -42 -27 -114 33 -142 31
-15 38 -15 76 -1 27 10 48 13 58 7 9 -5 23 -6 32 -3 16 6 16 42 0 173 -8 63
-40 91 -101 91 -26 -1 -60 -8 -75 -16z m135 -14 c27 -21 30 -37 41 -162 4 -51
2 -58 -14 -58 -10 0 -20 4 -22 10 -2 5 -22 3 -49 -7 -57 -21 -101 -7 -119 37
-26 63 18 104 105 98 47 -3 55 0 55 15 0 23 -35 57 -60 57 -12 0 -34 -7 -49
-15 -46 -23 -59 5 -13 29 39 22 95 20 125 -4z"/>
<path d="M433 275 c-39 -17 -44 -46 -11 -69 39 -28 108 5 108 51 0 16 -6 23
-19 23 -11 0 -25 2 -33 5 -7 2 -28 -2 -45 -10z m77 -21 c10 -11 -19 -39 -44
-42 -26 -3 -56 12 -56 28 0 22 80 33 100 14z"/>
<path d="M779 405 c-33 -18 -59 -71 -59 -123 0 -55 34 -102 93 -126 l47 -20
45 22 c50 24 64 45 47 73 -9 15 -8 19 8 24 42 13 8 129 -45 153 -35 16 -104
15 -136 -3z m131 -10 c33 -17 60 -61 60 -100 l0 -25 -100 0 -101 0 15 -28 c20
-38 57 -54 95 -41 16 6 32 17 35 25 6 16 36 8 36 -11 0 -16 -42 -44 -78 -51
-64 -13 -142 52 -142 119 0 42 28 95 59 112 34 19 85 19 121 0z m-15 -165
c-23 -25 -56 -26 -86 0 l-24 19 64 1 c63 0 64 0 46 -20z"/>
<path d="M799 351 c-16 -16 -29 -34 -29 -40 0 -7 30 -11 80 -11 90 0 100 11
55 55 -33 33 -70 32 -106 -4z m92 -1 c10 -6 19 -17 19 -25 0 -12 -14 -15 -60
-15 -64 0 -74 9 -38 34 26 19 51 20 79 6z"/>
<path d="M1007 413 c-4 -3 -7 -61 -7 -129 0 -99 3 -123 15 -128 36 -13 45 4
45 84 0 61 4 80 18 92 24 22 44 27 65 16 14 -7 17 -23 17 -97 0 -92 8 -109 45
-95 12 5 15 26 15 106 0 94 -9 134 -34 150 -17 11 -85 9 -108 -3 -14 -8 -23
-8 -31 0 -12 12 -30 14 -40 4z m33 -23 c0 -20 0 -20 33 0 42 26 91 26 117 0
17 -17 20 -33 20 -120 0 -93 -1 -100 -20 -100 -19 0 -20 7 -20 89 0 80 -2 91
-21 105 -24 16 -44 12 -76 -17 -20 -18 -23 -30 -23 -99 0 -71 -2 -78 -20 -78
-19 0 -20 7 -20 120 0 100 3 120 15 120 8 0 15 -9 15 -20z"/>
<path d="M1807 414 c-4 -4 -7 -62 -7 -130 0 -127 6 -143 45 -128 13 5 15 27
13 133 -3 118 -4 126 -23 129 -12 2 -24 0 -28 -4z m43 -124 c0 -113 -1 -120
-20 -120 -19 0 -20 7 -20 120 0 113 1 120 20 120 19 0 20 -7 20 -120z"/>
<path d="M1907 413 c-4 -3 -7 -61 -7 -129 0 -88 3 -123 13 -126 29 -11 37 4
37 67 0 78 14 111 51 124 47 16 59 -5 59 -104 0 -86 9 -103 45 -89 25 10 21
189 -5 232 -17 27 -25 32 -59 32 -22 0 -51 -4 -65 -10 -16 -6 -27 -6 -31 0 -7
11 -29 13 -38 3z m33 -25 c0 -20 1 -20 18 -5 22 20 73 31 105 23 35 -8 47 -46
47 -146 0 -83 -1 -90 -20 -90 -18 0 -20 7 -20 85 0 71 -3 88 -20 105 -16 16
-24 18 -50 9 -42 -15 -60 -55 -60 -134 0 -51 -3 -65 -15 -65 -12 0 -15 20 -15
120 0 100 3 120 15 120 9 0 15 -9 15 -22z"/>
<path d="M2204 406 c-37 -16 -64 -68 -64 -124 0 -55 34 -102 94 -126 l48 -20
46 24 c32 17 48 32 50 48 5 30 -24 40 -60 19 -39 -22 -61 -21 -89 3 l-24 19
82 1 c45 0 88 3 97 6 38 15 1 129 -49 152 -34 16 -92 15 -131 -2z m126 -11
c33 -17 60 -61 60 -100 l0 -25 -100 0 -101 0 15 -28 c20 -39 57 -54 96 -41 16
6 30 15 30 20 0 5 9 9 20 9 49 0 1 -54 -58 -66 -41 -8 -98 19 -122 58 -66 108
48 231 160 173z"/>
<path d="M2234 368 c-18 -8 -44 -46 -44 -63 0 -3 36 -5 80 -5 90 0 100 11 55
55 -25 26 -56 31 -91 13z m77 -18 c10 -6 19 -17 19 -25 0 -12 -14 -15 -60 -15
-64 0 -74 9 -38 34 26 19 51 20 79 6z"/>
</g>
</svg>
