<?xml version="1.0" standalone="no"?>
<!DOCTYPE svg PUBLIC "-//W3C//DTD SVG 20010904//EN"
 "http://www.w3.org/TR/2001/REC-SVG-20010904/DTD/svg10.dtd">
<svg version="1.0" xmlns="http://www.w3.org/2000/svg"
 width="300.000000pt" height="86.000000pt" viewBox="0 0 300.000000 86.000000"
 preserveAspectRatio="xMidYMid meet">
<metadata>
Created by potrace 1.10, written by Peter Selinger 2001-2011
</metadata>
<g transform="translate(0.000000,86.000000) scale(0.100000,-0.100000)"
fill="#000000" stroke="none">
<path d="M2296 711 c-3 -4 18 -26 45 -50 48 -42 51 -42 70 -25 10 9 19 20 19
24 0 14 -127 63 -134 51z"/>
<path d="M2435 632 l-30 -28 25 -21 26 -21 32 29 33 30 -23 19 c-29 24 -27 25
-63 -8z"/>
<path d="M2350 557 c-19 -17 -62 -55 -95 -84 -46 -40 -57 -55 -48 -64 9 -9 6
-16 -12 -31 -82 -64 -27 -208 79 -208 42 0 96 29 96 51 0 15 -20 10 -47 -11
-14 -11 -38 -20 -53 -20 -32 0 -80 43 -80 71 0 17 9 19 100 19 62 0 100 4 100
10 0 20 -27 75 -44 89 -9 7 -29 16 -45 20 -29 6 -28 7 54 76 l83 70 -21 23
c-11 12 -23 22 -26 22 -3 0 -22 -15 -41 -33z m-30 -71 c0 -2 -8 -10 -17 -17
-16 -13 -17 -12 -4 4 13 16 21 21 21 13z m14 -137 c14 -17 26 -35 26 -40 0 -5
-38 -9 -85 -9 -73 0 -85 2 -85 17 0 31 41 63 81 63 29 0 43 -7 63 -31z"/>
<path d="M2492 567 l-21 -22 52 -42 c28 -23 53 -40 55 -38 8 7 -19 70 -41 98
l-23 27 -22 -23z"/>
<path d="M2667 488 c-46 -63 -52 -68 -86 -68 -34 0 -38 -3 -53 -45 l-17 -45
53 0 c41 0 57 5 71 20 16 18 29 20 89 18 l71 -3 27 -75 27 -75 -2 169 -2 169
-64 1 -65 1 -49 -67z m143 -40 c0 -56 -3 -69 -12 -60 -20 20 -139 15 -168 -8
-28 -22 -74 -27 -68 -7 3 6 19 13 37 15 27 3 40 14 78 68 45 62 48 64 90 64
l43 0 0 -72z"/>
<path d="M630 347 c0 -168 3 -177 57 -177 41 0 46 27 6 32 l-28 3 -3 148 c-2
122 -5 147 -17 147 -13 0 -15 -25 -15 -153z"/>
<path d="M1810 475 c0 -16 6 -25 15 -25 9 0 15 9 15 25 0 16 -6 25 -15 25 -9
0 -15 -9 -15 -25z"/>
<path d="M140 475 c0 -12 13 -15 55 -15 l55 0 0 -145 c0 -122 2 -145 15 -145
13 0 15 23 15 145 l0 145 60 0 c47 0 60 3 60 15 0 13 -21 15 -130 15 -109 0
-130 -2 -130 -15z"/>
<path d="M1430 330 c0 -138 2 -160 16 -160 13 0 15 18 12 130 -2 72 0 130 5
130 4 0 7 -4 7 -9 0 -17 104 -191 115 -191 5 0 36 46 67 103 l58 102 0 -132
c0 -112 2 -133 15 -133 13 0 15 25 15 161 0 198 -6 201 -95 46 l-62 -107 -62
110 c-35 62 -68 110 -76 110 -13 0 -15 -26 -15 -160z"/>
<path d="M1280 440 c0 -31 -3 -38 -15 -34 -9 4 -15 0 -15 -10 0 -9 7 -16 15
-16 12 0 15 -17 15 -94 0 -105 8 -119 62 -114 46 4 51 33 6 33 l-33 0 -3 88
-3 87 31 0 c21 0 30 4 27 13 -2 6 -16 11 -31 9 -24 -3 -26 0 -26 38 0 29 -4
40 -15 40 -11 0 -15 -11 -15 -40z"/>
<path d="M415 392 c-47 -22 -32 -38 16 -18 51 22 98 -2 99 -49 0 -18 -7 -20
-59 -20 -69 0 -101 -21 -101 -67 0 -62 87 -92 143 -48 25 20 25 20 30 0 6 -23
37 -27 37 -5 0 8 -4 15 -10 15 -6 0 -9 30 -8 73 1 86 -12 113 -62 127 -43 12
-37 13 -85 -8z m99 -108 c10 -4 16 -18 16 -35 0 -24 -7 -33 -35 -46 -47 -22
-89 -9 -93 29 -5 43 58 73 112 52z"/>
<path d="M805 396 c-115 -50 -77 -226 49 -226 42 0 96 29 96 51 0 15 -20 10
-47 -11 -14 -11 -38 -20 -53 -20 -32 0 -80 43 -80 71 0 17 9 19 100 19 62 0
100 4 100 10 0 29 -33 82 -62 100 -38 23 -61 24 -103 6z m109 -47 c14 -17 26
-35 26 -40 0 -5 -38 -9 -85 -9 -77 0 -85 2 -85 19 0 28 47 61 85 61 25 0 40
-8 59 -31z"/>
<path d="M1010 290 c0 -100 3 -120 15 -120 12 0 15 15 15 76 0 70 2 78 29 105
17 17 40 29 55 29 41 0 56 -33 56 -127 0 -67 3 -83 15 -83 12 0 15 16 15 84 0
47 -4 96 -10 110 -20 53 -89 58 -136 11 l-24 -24 0 29 c0 20 -5 30 -15 30 -12
0 -15 -20 -15 -120z"/>
<path d="M1810 290 c0 -100 3 -120 15 -120 13 0 15 20 15 120 0 100 -2 120
-15 120 -12 0 -15 -20 -15 -120z"/>
<path d="M1910 290 c0 -100 3 -120 15 -120 12 0 15 15 15 79 0 76 1 80 31 105
17 14 41 26 54 26 39 0 50 -25 50 -122 0 -77 2 -88 18 -88 15 0 17 10 17 80 0
47 -6 95 -14 115 -23 55 -83 59 -137 9 l-26 -24 5 30 c3 23 0 30 -12 30 -14 0
-16 -16 -16 -120z"/>
<path d="M2650 331 c-9 -18 -22 -21 -121 -23 l-111 -3 -29 -75 c-16 -41 -29
-76 -29 -77 0 -2 110 -3 245 -3 135 0 245 3 244 8 0 4 -17 47 -37 97 l-37 90
-57 3 c-48 3 -58 0 -68 -17z m123 -54 c10 -21 20 -51 24 -68 l6 -29 -202 0
c-110 0 -201 2 -201 4 0 2 9 25 20 50 l19 46 100 0 c84 0 102 3 122 20 16 13
36 19 59 17 30 -2 38 -8 53 -40z"/>
</g>
</svg>
